<?xml version="1.0" encoding="UTF-8" standalone="no"?>
<svg
   xmlns:dc="http://purl.org/dc/elements/1.1/"
   xmlns:cc="http://creativecommons.org/ns#"
   xmlns:rdf="http://www.w3.org/1999/02/22-rdf-syntax-ns#"
   xmlns:svg="http://www.w3.org/2000/svg"
   xmlns="http://www.w3.org/2000/svg"
   xmlns:sodipodi="http://sodipodi.sourceforge.net/DTD/sodipodi-0.dtd"
   xmlns:inkscape="http://www.inkscape.org/namespaces/inkscape"
   width="512"
   height="512"
   role="img"
   version="1.1"
   id="svg10"
   sodipodi:docname="youtube-blacklist-icon.svg"
   inkscape:version="0.92.5 (2060ec1f9f, 2020-04-08)">
  <metadata
     id="metadata16">
    <rdf:RDF>
      <cc:Work
         rdf:about="">
        <dc:format>image/svg+xml</dc:format>
        <dc:type
           rdf:resource="http://purl.org/dc/dcmitype/StillImage" />
      </cc:Work>
    </rdf:RDF>
  </metadata>
  <defs
     id="defs14" />
  <sodipodi:namedview
     pagecolor="#ffffff"
     bordercolor="#666666"
     borderopacity="1"
     objecttolerance="10"
     gridtolerance="10"
     guidetolerance="10"
     inkscape:pageopacity="0"
     inkscape:pageshadow="2"
     inkscape:window-width="1878"
     inkscape:window-height="1016"
     id="namedview12"
     showgrid="false"
     inkscape:zoom="1.3037281"
     inkscape:cx="167.09982"
     inkscape:cy="237.64718"
     inkscape:window-x="42"
     inkscape:window-y="27"
     inkscape:window-maximized="1"
     inkscape:current-layer="g8" />
  <title
     id="title2">YouTube</title>
  <g
     id="g8">
    <title
       id="title4">Layer 1</title>
    <path
       id="svg_1"
       d="m474.96197,145.28118a57.43514,57.43514 0 0 0 -40.41027,-40.67688c-35.63036,-9.61696 -178.55169,-9.61696 -178.55169,-9.61696s-142.92134,0 -178.57074,9.61696a57.45419,57.45419 0 0 0 -40.39123,40.67688c-9.55983,35.87792 -9.55983,110.71881 -9.55983,110.71881s0,74.84089 9.55983,110.71881a57.43514,57.43514 0 0 0 40.41027,40.67688c35.63036,9.61696 178.55169,9.61696 178.55169,9.61696s142.92134,0 178.57074,-9.61696a57.4161,57.4161 0 0 0 40.41027,-40.67688c9.54078,-35.87792 9.54078,-110.71881 9.54078,-110.71881s0,-74.84089 -9.55983,-110.71881zm-265.71371,178.66595l0,-135.89429l119.45977,67.94715l-119.45977,67.94715z"
       style="fill:#282828;fill-opacity:1" />
    <line
       id="svg_12"
       y2="475.26351"
       x2="475.26351"
       y1="36.73648"
       x1="36.73648"
       stroke-width="40"
       stroke="#ff0000"
       fill="none" />
  </g>
</svg>
