<svg width="512" height="512" xmlns="http://www.w3.org/2000/svg" role="img">
 <title>YouTube</title>

 <g>
  <title>Layer 1</title>
  <path id="svg_1" d="m474.96197,145.28118a57.43514,57.43514 0 0 0 -40.41027,-40.67688c-35.63036,-9.61696 -178.55169,-9.61696 -178.55169,-9.61696s-142.92134,0 -178.57074,9.61696a57.45419,57.45419 0 0 0 -40.39123,40.67688c-9.55983,35.87792 -9.55983,110.71881 -9.55983,110.71881s0,74.84089 9.55983,110.71881a57.43514,57.43514 0 0 0 40.41027,40.67688c35.63036,9.61696 178.55169,9.61696 178.55169,9.61696s142.92134,0 178.57074,-9.61696a57.4161,57.4161 0 0 0 40.41027,-40.67688c9.54078,-35.87792 9.54078,-110.71881 9.54078,-110.71881s0,-74.84089 -9.55983,-110.71881zm-265.71371,178.66595l0,-135.89429l119.45977,67.94715l-119.45977,67.94715z"/>
  <line id="svg_12" y2="475.26351" x2="475.26351" y1="36.73648" x1="36.73648" stroke-width="40" stroke="#ff0000" fill="none"/>
 </g>
</svg>